<?xml version="1.0" encoding="utf-8"?>
<!-- Generator: Adobe Illustrator 18.1.1, SVG Export Plug-In . SVG Version: 6.00 Build 0)  -->
<svg version="1.1" id="Shape_5_copy_1_" xmlns="http://www.w3.org/2000/svg" xmlns:xlink="http://www.w3.org/1999/xlink" x="0px" width="96px" height="67px"
	 y="0px" viewBox="0 0 96 67" enable-background="new 0 0 96 67" xml:space="preserve">
<g id="Shape_5_copy">
	<g>
		<path fill="#FFFFFF" d="M1,66v1h95v-1H1z M58.1,59.1c-0.9,2.2-1.5,3.3-1.8,3.8h2.3c0-0.3,0.1-0.9,0.3-1.6c0.2-0.7,0.5-1.8,0.9-3.1
			h4.1l0.6,1.6c0.4,1,0.8,2.3,0.9,3h3.3c-0.3-0.5-0.8-1.8-1.4-3.3l-2.7-7.7c-0.4-1.1-0.4-1.5-0.5-1.9h-3.7v0.4
			c0.7,0.1,0.7,0.5,0.7,0.8c0,0.4-0.1,0.8-0.6,2.1L58.1,59.1z M61.9,52.2l1.7,5.2h-3.5L61.9,52.2z M89.4,59.1c1.3,2,1.8,3.2,2.1,3.8
			h4.3c-1.5-1.6-3.6-4.4-4.5-5.7l-1.7-2.4l1.3-1.4c0.6-0.6,2.6-2.7,3.9-3.4v0h-3c-0.4,0.9-1.7,2.6-2.7,4l-1.7,2.2L89.4,59.1z
			 M87.9,62.5c-0.6-0.1-0.7-0.3-0.7-1V51.4c0-0.7,0.1-0.9,0.7-1V50h-4.2v0.4c0.6,0.1,0.7,0.3,0.7,1v10.1c0,0.7-0.1,0.9-0.7,1v0.4
			h4.2V62.5z M73.9,62.5c-0.6-0.1-0.7-0.3-0.7-1v-5.2h5v5.2c0,0.7-0.1,0.9-0.7,1v0.4h4.2v-0.4c-0.6-0.1-0.7-0.3-0.7-1V51.4
			c0-0.7,0.1-0.9,0.7-1V50h-4.2v0.4c0.6,0.1,0.7,0.3,0.7,1v4h-5v-4c0-0.7,0.1-0.9,0.7-1V50h-4.2v0.4c0.6,0.1,0.7,0.3,0.7,1v10.1
			c0,0.7-0.1,0.9-0.7,1v0.4h4.2V62.5z M32.9,59.9h-0.8L32,60.4c-0.4,1.6-0.8,1.7-2.5,1.7h-0.4c-1.7,0-2-0.3-2-1v-4.8h1.7
			c0.7,0,1.8,0.1,2.3,0.4V55c-0.4,0.3-1.6,0.4-2.3,0.4h-1.7v-4c0-0.4,0.1-0.6,0.6-0.6h1.4c1.7,0,2.1,0.1,2.5,1.5l0.2,0.5h0.7
			c0-0.9,0-1.9,0-2.8h-9v0.4c0.6,0.1,0.7,0.3,0.7,1v10.1c0,0.7-0.1,0.9-0.7,1v0.4h9.3C32.9,61.9,32.9,60.9,32.9,59.9z M39.4,57.8
			c3.1,0,5-0.9,5-4.1c0-3.1-1.9-3.7-4.5-3.7h-5.4v0.4c0.6,0.1,0.7,0.3,0.7,1v10.1c0,0.7-0.1,0.9-0.7,1v0.4h4.2v-0.4
			c-0.6-0.1-0.7-0.3-0.7-1v-3.7H39.4z M38.1,51.5c0-0.6,0.3-0.7,0.8-0.7h0.3c1.7,0,2.3,1.1,2.3,2.8c0,2-0.4,3.4-2.1,3.4h-1.3V51.5z
			 M45.6,62.5v0.4h5.2c3.2,0,5.1-0.9,5.1-4.3c0-3.6-2.5-4-6.1-4h-0.7v-3.1c0-0.6,0.1-0.8,0.9-0.8h1.8c1.7,0,2.1,0.1,2.5,1.5l0.2,0.5
			h0.7c0-0.9,0-1.9,0-2.8h-9.6v0.4c0.6,0.1,0.7,0.3,0.7,1v10.1C46.4,62.2,46.3,62.4,45.6,62.5z M49.1,55.4h1.1
			c2.2,0,2.8,1.2,2.8,3.3c0,2.3-0.7,3.4-2.3,3.4h-0.4c-0.9,0-1.1-0.3-1.1-1.1V55.4z M22.2,58.6c0-3.6-2.5-4-6.1-4h-0.7v-3.1
			c0-0.6,0.1-0.8,0.9-0.8h1.8c1.7,0,2.1,0.1,2.5,1.5l0.2,0.5h0.7c0-0.9,0-1.9,0-2.8h-9.6v0.4c0.6,0.1,0.7,0.3,0.7,1v10.1
			c0,0.7-0.1,0.9-0.7,1v0.4h5.2C20.2,62.9,22.2,62.1,22.2,58.6z M16.5,62.1c-0.9,0-1.1-0.3-1.1-1.1v-5.5h1.1c2.2,0,2.8,1.2,2.8,3.3
			c0,2.3-0.7,3.4-2.3,3.4H16.5z M6.3,63.2c1.6,0,3.2-0.4,4.4-1.2l-0.4-0.8C9.5,61.6,8.6,62,7.1,62c-3.2,0-3.9-2.5-3.9-5.8
			c0-3.5,0.7-5.5,3.5-5.5c1.8,0,2.3,0.7,2.6,1.6l0.2,0.8h0.8c0-0.9,0-1.8,0-2.7c-0.4-0.1-1.7-0.6-3.8-0.6c-4.6,0-6.4,2.6-6.4,6.9
			C0.2,61.1,2.4,63.2,6.3,63.2z M64.8,8.2c-0.4-0.6-0.9-1.2-1.3-1.8L40.2,19.9L29,13.4c-0.2,0.7-0.4,1.5-0.6,2.2l11.8,6.8L64.8,8.2z
			 M48.1,39.4c11.1,0,20-9,20-20c0-3.3-0.8-6.5-2.3-9.3L40.2,24.9l-12.1-7c0,0.5-0.1,1-0.1,1.4C28.1,30.4,37,39.4,48.1,39.4z
			 M61.9,4.8c-0.6-0.5-1.2-1-1.8-1.5L40.2,14.8l-9.5-5.5c-0.4,0.6-0.7,1.3-1,2l10.5,6.1L61.9,4.8z M58.1,2c-0.8-0.4-1.5-0.8-2.4-1.2
			l-15.5,9l-6.9-4c-0.5,0.5-1,1.1-1.4,1.7l8.3,4.8L58.1,2z"/>
	</g>
</g>
</svg>
