<?xml version="1.0" encoding="utf-8"?>
<!-- Generator: Adobe Illustrator 18.1.1, SVG Export Plug-In . SVG Version: 6.00 Build 0)  -->
<svg version="1.1" id="Shape_1_1_" xmlns="http://www.w3.org/2000/svg" xmlns:xlink="http://www.w3.org/1999/xlink" x="0px" y="0px" width="112px" height="24px"
	 viewBox="0 0 112 24" enable-background="new 0 0 112 24" xml:space="preserve">
<g id="Shape_1">
	<g>
		<path fill="#FFFFFF" d="M60.6,5l-6,13.9h4.1l0.6-1.5h5.5l0.6,1.5h4L63.4,5H60.6z M60.2,15L62,10l1.8,4.9H60.2z M48,19h4V5h-4V19z
			 M38.3,14l-3.4-9h-4.1l6,13.9h2.8l6-13.9h-4L38.3,14z M98,5v3.3h5V19h4V8.3h5V5H98z M82.1,11c-0.7-0.4-1.5-0.5-3.6-0.5h-2.7
			c-0.9,0-1.2-0.3-1.2-1.2V9.2c0,0,0-0.1,0-0.1c0-0.8,0.4-1.1,1.2-1.1h3c0.4,0,0.7,0.1,0.9,0.2c0,0,0,0,0,0c0.2,0.2,0.2,0.4,0.2,0.7
			c0.4,0,3.2-0.3,3.6-0.3c-0.1-0.3-0.2-0.7-0.3-1c-0.7-2-2.1-2.8-5-2.8h-2.2c-3.5,0-5.2,1.2-5.2,3.6v1.6c0,1.3,0.5,2.2,1.4,2.7
			c0.7,0.4,1.5,0.5,3.6,0.5h2.8c0.9,0,1.2,0.3,1.2,1.2v0.2c0,0.8-0.4,1.2-1.2,1.2h-3c-0.5,0-0.8-0.1-1-0.3c-0.2-0.2-0.2-0.4-0.3-0.7
			c-0.3,0-3.2,0.1-3.6,0.1c0.4,2.9,1.9,4,5.2,4h2.2c3.5,0,5.2-1.2,5.2-3.6v-1.7C83.5,12.4,83,11.5,82.1,11z M90.8,5l-6,13.9h4.1
			l0.6-1.5H95l0.6,1.5h4L93.6,5H90.8z M90.4,15l1.8-5l1.8,5H90.4z M16.4,0.4C15.4,0.2,14,0,13,0c-1,0-2.1,0.2-3,0.4L13,9.8L16.4,0.4
			z M15.2,17l-4.1,0L4.6,1.8C1.8,4.2-0.1,8,0,11.9C0.2,17.9,5.8,24,13.1,24c7.3,0,13-6.1,12.9-12.4c-0.1-3.9-1.4-6.9-4.2-9.5
			L15.2,17z"/>
	</g>
</g>
</svg>
