<?xml version="1.0" encoding="utf-8"?>
<!-- Generator: Adobe Illustrator 18.1.1, SVG Export Plug-In . SVG Version: 6.00 Build 0)  -->
<svg version="1.1" id="DIM_1_" xmlns="http://www.w3.org/2000/svg" xmlns:xlink="http://www.w3.org/1999/xlink" x="0px" y="0px" width="92px" height="49px"
	 viewBox="0 0 92 49" enable-background="new 0 0 92 49" xml:space="preserve">
<g id="DIM">
	<g>
		<path fill-rule="evenodd" clip-rule="evenodd" d="M20.6,32.4c0-0.9-0.6-1.6-2.1-1.6c-0.7,0-1.4,0.2-2,0.7l0.6,0.6
			c0.3-0.3,0.7-0.6,1.4-0.6c0.8,0,1.2,0.5,1.2,1v0.2H19c-1.5,0-2.7,0.4-2.7,1.7c0,1,0.8,1.5,1.7,1.5c0.8,0,1.3-0.2,1.7-0.9h0
			c0,0.2,0,0.5,0,0.8h0.8c0-0.3,0-0.6,0-0.9V32.4z M19.7,33.7c0,0.7-0.4,1.4-1.4,1.4c-0.6,0-1.1-0.2-1.1-0.8c0-0.8,1.1-0.9,2-0.9
			h0.5V33.7z M12.5,30.7c-1.5,0-2.6,1.1-2.6,2.6c0,1.5,1,2.6,2.5,2.6c0.9,0,1.7-0.3,2.2-1L14,34.4c-0.4,0.4-0.8,0.7-1.4,0.7
			c-0.9,0-1.7-0.6-1.7-1.4h4v-0.3C14.9,32.1,14.2,30.7,12.5,30.7z M10.9,32.9c0-0.7,0.6-1.4,1.5-1.4c0.9,0,1.4,0.6,1.4,1.4H10.9z
			 M16.2,10h-4.5c-0.2,0-0.4,0.2-0.4,0.4v6.2c0,0.2,0.2,0.4,0.4,0.4h4.2c1.4,0,4.5-0.2,4.5-3.4C20.3,9.9,16.2,10,16.2,10z
			 M25.9,33.4c0,1.1-0.6,1.6-1.4,1.6c-0.6,0-1.1-0.3-1.1-1.3v-2.9h-0.9V34c0,1.3,0.8,1.9,1.8,1.9c0.8,0,1.4-0.4,1.6-0.9h0v0.8h0.9
			v-4.9h-0.9V33.4z M64.1,0.5C63.8,0.2,63.4,0,62.9,0H1.8C1.3,0,0.9,0.2,0.5,0.5C0.2,0.8,0,1.3,0,1.7v23.5c0,0.5,0.2,0.9,0.5,1.2
			C0.9,26.8,1.3,27,1.8,27c0,0,88.7,0,88.7,0C85.5,22.1,64.3,0.6,64.1,0.5z M18.1,23H6.2c-0.4,0-0.8-0.4-0.8-0.8V4.8
			C5.4,4.3,5.8,4,6.2,4h11.1c8,0,9.6,7.2,9.6,9.7C26.9,17.5,23.7,23,18.1,23z M34.3,22.4c0,0.3-0.3,0.6-0.6,0.6h-5
			c-0.3,0-0.5-0.2-0.5-0.5V4.6c0-0.3,0.2-0.6,0.6-0.6h5c0.3,0,0.5,0.2,0.5,0.5V22.4z M60.9,22.5c0,0.3-0.2,0.5-0.5,0.5h-5
			c-0.3,0-0.6-0.3-0.6-0.6v-9.2l-6,6c-0.1,0.1-0.2,0.2-0.4,0.2c-0.1,0-0.3-0.1-0.4-0.2l-6-6v9.2c0,0.3-0.3,0.6-0.6,0.6h-5
			c-0.3,0-0.5-0.2-0.5-0.5V4.6c0-0.3,0.2-0.6,0.6-0.6h5c0.1,0,0.3,0.1,0.4,0.1l6.5,6.7L55,4.1C55.1,4.1,55.2,4,55.4,4h5
			c0.3,0,0.6,0.2,0.6,0.6V22.5z M6,30.7c-0.7,0-1.4,0.3-1.7,0.8h0v-3.6H3.4v7.9h0.9v-0.7h0c0.4,0.5,1.1,0.8,1.7,0.8
			c1.5,0,2.5-1.1,2.5-2.6C8.5,31.9,7.6,30.7,6,30.7z M5.9,35.1c-1,0-1.6-0.7-1.6-1.7c0-1,0.6-1.7,1.6-1.7c1,0,1.6,0.7,1.6,1.7
			C7.5,34.3,6.9,35.1,5.9,35.1z M33.7,28.4c-0.4,0-0.7,0.3-0.7,0.7c0,0.4,0.3,0.7,0.7,0.7c0.4,0,0.7-0.3,0.7-0.7
			C34.4,28.7,34.1,28.4,33.7,28.4z M76.2,31.5c-1,0-1.6,0.7-1.6,1.7c0,1,0.6,1.7,1.6,1.7c1,0,1.6-0.7,1.6-1.7
			C77.8,32.2,77.2,31.5,76.2,31.5z M91.6,28.5c-0.4-0.3-0.9-0.6-1.5-0.6h-8.9v7.7h-0.9V28H53.9c-0.2,0.2-3.2,2.6-3.2,2.6
			c-0.4,0.4-0.6,0.8-0.6,1.3c0,0.5,0.2,1,0.6,1.3l4.1,3.6v-6.1h0.9v0.7h0c0.4-0.5,1.1-0.8,1.7-0.8c1.5,0,2.5,1.1,2.5,2.6
			c0,1.5-1,2.6-2.5,2.6c-0.7,0-1.4-0.3-1.7-0.8h0v2.7l12.4,10.9c0.8,0.7,2.2,0.7,3.1,0l14.6-12.8c-0.2,0.1-0.5,0.1-0.8,0.1
			c-1.6,0-2.6-1.1-2.6-2.6c0-1.5,1.1-2.6,2.6-2.6c1.8,0,2.4,1.3,2.4,2.6v0.3h-4c0,0.9,0.8,1.4,1.7,1.4c0.6,0,1-0.3,1.4-0.7l0.5,0.4
			l4.4-3.8c0.4-0.4,0.6-0.9,0.6-1.3C92,29.1,91.9,28.9,91.6,28.5z M66,33.5h-4c0,0.9,0.8,1.4,1.7,1.4c0.6,0,1-0.3,1.4-0.7l0.7,0.5
			c-0.5,0.7-1.2,1-2.2,1c-1.6,0-2.6-1.1-2.6-2.6c0-1.5,1.1-2.6,2.6-2.6c1.8,0,2.4,1.3,2.4,2.6V33.5z M69.7,35.8
			c-1.5,0-2.6-1.2-2.6-2.6c0-1.4,1.2-2.6,2.6-2.6c1.5,0,2.6,1.2,2.6,2.6C72.3,34.6,71.2,35.8,69.7,35.8z M76.3,35.8
			c-0.7,0-1.4-0.3-1.7-0.8h0v3.7h-0.9v-7.9h0.9v0.7h0c0.4-0.5,1.1-0.8,1.7-0.8c1.5,0,2.5,1.1,2.5,2.6C78.9,34.7,77.9,35.8,76.3,35.8
			z M69.7,31.5c-1,0-1.6,0.7-1.6,1.7c0,1,0.6,1.7,1.6,1.7c1,0,1.6-0.7,1.6-1.7C71.3,32.2,70.7,31.5,69.7,31.5z M85,31.3
			c-0.9,0-1.5,0.8-1.5,1.4h3C86.4,32,86,31.3,85,31.3z M57.4,34.9c1,0,1.6-0.7,1.6-1.7c0-1-0.6-1.7-1.6-1.7c-1,0-1.6,0.7-1.6,1.7
			C55.8,34.2,56.4,34.9,57.4,34.9z M46.6,35.8h0.9v-7.9h-0.9V35.8z M63.6,31.3c-0.9,0-1.5,0.8-1.5,1.4h3C65,32,64.6,31.3,63.6,31.3z
			 M33.2,35.8h0.9v-4.9h-0.9V35.8z M36.6,29.8v1.1h-1.1v0.8h1.1v4.1h0.9v-4.1h1.1v-0.8h-1.1v-1.1c0-0.7,0.1-1.1,0.8-1.1
			c0.2,0,0.4,0,0.5,0.1l0.1-0.8c-0.3-0.1-0.5-0.1-0.7-0.1C37,27.8,36.6,28.5,36.6,29.8z M30.1,33.9v-2.2h1.3v-0.8h-1.3v-1.4h-0.9
			v1.4h-1.1v0.8h1.1v2.6c0,0.8,0,1.7,1.5,1.7c0.2,0,0.6,0,0.8-0.2v-0.9c-0.2,0.1-0.4,0.1-0.7,0.1C30.1,35.1,30.1,34.5,30.1,33.9z
			 M43.6,33.4c0,1.1-0.6,1.6-1.4,1.6c-0.6,0-1.1-0.3-1.1-1.3v-2.9h-0.9V34c0,1.3,0.8,1.9,1.8,1.9c0.8,0,1.4-0.4,1.6-0.9h0v0.8h0.9
			v-4.9h-0.9V33.4z"/>
	</g>
</g>
</svg>
