<?xml version="1.0" encoding="utf-8"?>
<!-- Generator: Adobe Illustrator 18.1.1, SVG Export Plug-In . SVG Version: 6.00 Build 0)  -->
<svg version="1.1" id="longines_copy_1_" xmlns="http://www.w3.org/2000/svg" xmlns:xlink="http://www.w3.org/1999/xlink" x="0px" width="111px" height="28px"
	 y="0px" viewBox="0 0 111 28" enable-background="new 0 0 111 28" xml:space="preserve">
<g id="longines_copy">
	<g>
		<path fill-rule="evenodd" clip-rule="evenodd" fill="#FFFFFF" d="M51.2,15.3c1.6,0,2.9-0.4,4.2-1.4l0.8,1.1h1.6v-4.9
			c0-0.7,0.2-0.9,0.9-0.9h0.7V7.5h-7.3v1.7h1.2c1,0,1.1,0.2,1.1,1.1v1.1c0,1.4-0.9,2-2.4,2c-2.4,0-3.9-1.9-3.9-5.5s1.5-5.5,3.8-5.5
			c2.2,0,3.5,1.4,3.7,4.1h1.8V0.9h-1.7L55.3,2C54,1,52.8,0.6,51.3,0.6c-4,0-7.1,3.1-7.1,7.3C44.1,12.4,47,15.3,51.2,15.3z M7.6,13.2
			H5.5V4c0-1.2,0.2-1.3,1.2-1.3h0.9V1H0.4v1.7h0.7c1.1,0,1.2,0.1,1.2,1.3v7.9c0,1.2-0.2,1.3-1.2,1.3H0.4V15h12.2V9.1H11
			C10.8,12.6,10.1,13.2,7.6,13.2z M20.9,0.6c-4.3,0-7.2,3-7.2,7.3c0,4.3,2.9,7.4,7.2,7.4c4.3,0,7.2-3,7.2-7.4
			C28.1,3.6,25.2,0.6,20.9,0.6z M20.9,13.5c-2.2,0-3.6-1.9-3.6-5.5s1.4-5.5,3.6-5.5c2.2,0,3.6,1.9,3.6,5.5S23.1,13.5,20.9,13.5z
			 M61.3,4v7.9c0,1.2-0.2,1.3-1.2,1.3h-0.7V15h7.2v-1.8h-0.8c-1.1,0-1.2-0.1-1.2-1.3V4c0-1.2,0.1-1.3,1.2-1.3h0.8V1h-7.2v1.7h0.7
			C61.1,2.7,61.3,2.8,61.3,4z M76.8,2.7h0.6c1.1,0,1.2,0.1,1.2,1.3v4.8L73.2,1h-5.7v1.7h0.6c1.1,0,1.2,0.3,1.2,1.5v7.8
			c0,1.2-0.1,1.3-1.2,1.3h-0.6V15h6.1v-1.8h-0.9c-1.1,0-1.2-0.1-1.2-1.3V4.2L79.1,15H81V4c0-1.2,0.2-1.3,1.2-1.3h0.6V1h-6.1V2.7z
			 M34.6,13.2h-0.9c-1.1,0-1.2-0.1-1.2-1.3V4.2L40.2,15H42V4c0-1.2,0.2-1.3,1.2-1.3h0.6V1h-6v1.7h0.5c1.1,0,1.2,0.1,1.2,1.3v4.8
			L34.2,1h-5.7v1.7h0.6c1.1,0,1.2,0.3,1.2,1.5v7.8c0,1.2-0.1,1.3-1.2,1.3h-0.6V15h6.1V13.2z M105.5,6.4c-2.5-0.6-3.9-0.8-3.9-2.3
			c0-1,0.8-1.6,2.2-1.6c2.3,0,3.7,1.3,4,3.7h1.6V1H108l-0.5,1c-1.2-0.9-2.4-1.3-3.8-1.3c-3.1,0-5,1.9-5,4.5c0,2.7,1.8,3.5,5,4.3
			c2.2,0.6,3.5,0.8,3.5,2.2c0,1-0.9,1.7-2.4,1.7c-2.2,0-3.9-1.4-4.3-3.9h-1.7V15h1.5l0.4-1.1c1.2,1,2.5,1.4,4.1,1.4
			c3.3,0,5.3-1.9,5.3-4.6C110.2,8.2,108.6,7.2,105.5,6.4z M83.8,2.7h0.7c1.1,0,1.2,0.1,1.2,1.3v7.9c0,1.2-0.2,1.3-1.2,1.3h-0.7V15
			h12.8V9.1H95c-0.2,3.5-1,4.1-3.7,4.1h-2.3V8.5h0.7c1.3,0,1.8,0.5,1.8,1.9v0.6H93V4.5h-1.6c0,1.8-0.3,2.3-1.8,2.3h-0.7V2.7h2.5
			c2.5,0,3.3,0.4,3.5,3.7h1.6V1H83.8V2.7z M59.4,19.2L58.7,18H52l-0.7,1.2L50.5,18H32.3l2.2,1.9h3.5l1.7,1.3h3.6l1.7,1.4h3.5l1.4,1
			h2.6v3.9h5.9v-3.9h2.5l1.3-1h3.5l1.5-1.4h3.6l2-1.4h3.6l2.1-1.8H60.3L59.4,19.2z M54.4,21.8h2.1l-1,1.5L54.4,21.8z M56.5,25.6h-2
			l1-1.4L56.5,25.6z M54.1,21.1l-0.4-0.8h3.6l-0.5,0.8H54.1z M55.2,23.6L53.1,27v-6.7L55.2,23.6z M53.7,26.8l0.5-0.7h2.8l0.5,0.7
			H53.7z M57.8,26.7l-2.1-3.1l2.1-3.4V26.7z M76.5,18.6l-0.7,0.6H65.5L65,19.9h6.3l-0.9,0.6h-7.6l-0.7,0.6h4l-0.7,0.7h-5.7l-0.6,0.7
			h2.4l-0.7,0.4h-2.3v-3.2h-5.9v3.2h-2.4l-0.7-0.5h2.4L51.1,22h-5.7l-0.7-0.8h3.9L48,20.6h-7.6l-0.9-0.8h6.3l-0.5-0.6H35l-0.7-0.6
			h15.7l1.4,1.8l1.2-1.9h5.6l1.2,1.9l1.4-1.8H76.5z"/>
	</g>
</g>
</svg>
