<?xml version="1.0" encoding="utf-8"?>
<!-- Generator: Adobe Illustrator 18.1.1, SVG Export Plug-In . SVG Version: 6.00 Build 0)  -->
<svg version="1.1" id="Shape_14_1_" xmlns="http://www.w3.org/2000/svg" xmlns:xlink="http://www.w3.org/1999/xlink" x="0px" width="108px" height="38px"
	 y="0px" viewBox="0 0 108 38" enable-background="new 0 0 108 38" xml:space="preserve">
<g id="Shape_14">
	<g>
		<path fill="#FFFFFF" d="M74.2,14h5.5v14h5.8V14H91l0.3-5H73.8L74.2,14z M65.4,9l-4.6,10.8h-0.3L55.6,9h-5.3L49,28h5.4l0.6-9.2h0.3
			l3.4,7.3h3.7l3.1-7.3h0.3l0.6,9.2H72L70.8,9H65.4z M35.2-0.1H4.8C2.7-0.1,1,1.6,1,3.7v30.5C1,36.3,2.7,38,4.8,38h30.4
			c2.1,0,3.8-1.7,3.8-3.8V3.7C38.9,1.6,37.3-0.1,35.2-0.1z M37,34.1c0,1-0.9,1.9-1.9,1.9H4.9c-1,0-1.9-0.8-1.9-1.9V3.9
			C3,2.9,3.9,2,4.9,2h30.3c1,0,1.9,0.9,1.9,1.9V34.1z M107.6,23.3c0,0-2.3,0.3-4.9,0.3c-3.2,0-3.8-1-3.8-3.5v-3
			c0-2.6,0.5-3.6,3.8-3.6c2.4,0,4.7,0.3,4.7,0.3l0.3-4.7c0,0-2.9-0.4-5.4-0.4c-6.7,0-9.1,2.2-9.1,7.5v4.6c0,5.9,3,7.5,9.1,7.5
			c2.5,0,5.8-0.4,5.8-0.4L107.6,23.3z M20.1,4.8c-2.5,0-5.1,2-7.3,5.5c-2,3.3-3.2,7.5-3.2,11.1c0,3,0.9,5.7,2.5,7.8
			c1.9,2.4,4.6,3.6,8,3.6c3.3,0,6.1-1.3,8-3.6c1.6-2,2.5-4.8,2.5-7.8c0-3.6-1.2-7.7-3.2-11.1C25.2,6.8,22.5,4.8,20.1,4.8z"/>
	</g>
</g>
</svg>
