<?xml version="1.0" encoding="utf-8"?>
<!-- Generator: Adobe Illustrator 18.1.1, SVG Export Plug-In . SVG Version: 6.00 Build 0)  -->
<svg version="1.1" id="KIA_1_" xmlns="http://www.w3.org/2000/svg" xmlns:xlink="http://www.w3.org/1999/xlink" x="0px" y="0px" width="92px" height="63px"
	 viewBox="0 0 92 63" enable-background="new 0 0 92 63" xml:space="preserve">
<g id="KIA">
	<g>
		<path fill="#FFFFFF" d="M10.7,52H7.8L5,55.6V52H2v10h3v-4l3.3,4h3.3l-4.2-5.3L10.7,52z M12.3,62H15V52h-2.8V62z M38.6,52l-1.9,5.3
			L34.5,52h-2.8l-1.5,10h2.3l0.9-5.3l2.3,5.3h1.8l2.1-5.3l0.9,5.3H43l-1.4-10H38.6z M62.1,52h-8.6v1.7h2.9V62h2.9v-8.3h2.8V52z
			 M87.8,56.3l-1.1-0.5c-0.6-0.3-1.4-0.7-1.4-1.4c0-0.8,1-1.1,1.7-1.1c0.8,0,1.5,0.3,2.2,0.6v-1.4c-0.9-0.4-1.7-0.7-2.7-0.7
			c-1.8,0-4.1,1-4.1,3.2c0,1.6,1.4,2.4,2.7,3l1,0.5c0.6,0.3,1.2,0.6,1.2,1.3c0,0.8-0.9,1.2-1.6,1.2c-1.1,0-2.2-0.5-3.2-1l0.4,1.5
			c1.1,0.6,2.2,1,3.5,1c1.9,0,3.6-1.1,3.6-3.2C90.1,57.8,89,56.9,87.8,56.3z M19.3,52l-3.6,10H18l0.7-1.9h3.4l0.7,1.9h2.7l-3.4-10
			H19.3z M19.4,58.4l1.1-2.9l1.1,2.9H19.4z M81.9,60.8l-2.5-3.6c1-0.5,1.9-1.5,1.9-2.7c0-1.9-2.2-2.6-3.7-2.6h-4.4v10h3.1v-4.7
			l2.7,3.9c0.3,0.4,0.8,0.8,1.3,0.8h2.5v-0.3C82.4,61.5,82.1,61.2,81.9,60.8z M76.3,57v-3.3h0.1c1,0,2,0.3,2,1.4
			C78.5,56.3,77.3,56.8,76.3,57z M48.6,51.5c-3,0-5.7,2.4-5.7,5.5c0,3.1,2.7,5.5,5.7,5.5c3,0,5.7-2.4,5.7-5.5
			C54.4,53.9,51.6,51.5,48.6,51.5z M48.6,60.7c-1.9,0-2.9-2.1-2.9-3.7c0-1.6,1-3.7,2.9-3.7c1.9,0,2.9,2.1,2.9,3.7
			C51.5,58.7,50.5,60.7,48.6,60.7z M67.1,51.5c-3,0-5.7,2.4-5.7,5.5c0,3.1,2.7,5.5,5.7,5.5c3,0,5.7-2.4,5.7-5.5
			C72.8,53.9,70.1,51.5,67.1,51.5z M67.1,60.7c-1.9,0-2.9-2.1-2.9-3.7c0-1.6,1-3.7,2.9-3.7c1.9,0,2.9,2.1,2.9,3.7
			C69.9,58.7,68.9,60.7,67.1,60.7z M23.4,42.8c7.4,2,15.1,3.1,22.8,3.1c4.6,0,9.2-0.4,13.8-1.1c5.5-0.9,11-2.2,16.1-4.5
			C83,37.3,91.7,31.6,91.7,23c0-10.8-14-17.4-22.8-19.8c-7.4-2-15.1-3.1-22.8-3.1c-4.6,0-9.2,0.4-13.8,1.1c-5.5,0.9-11,2.2-16.1,4.5
			C9.4,8.7,0.6,14.4,0.6,23C0.6,33.8,14.6,40.5,23.4,42.8z M25.1,7.6c6.9-1.5,14-2.4,21-2.4c4.2,0,8.5,0.3,12.7,0.9
			c5,0.7,10,1.6,14.8,3.4c5.5,2,14.6,6.5,14.6,13.4c0,8.7-14.2,13.8-21,15.4c-6.9,1.5-13.9,2.4-21,2.4c-4.2,0-8.5-0.3-12.7-0.9
			c-5-0.7-10-1.6-14.8-3.4C13.1,34.4,4,29.9,4,22.9C4,14.2,18.3,9.1,25.1,7.6z M18.5,34h6.1v-9.8L32,34h6.9l-8.4-11.9L37.3,12h-6.8
			l-5.9,8v-8h-7.4v0.9l1.3,0.6V34z M43.7,34h6.1V12h-7.3v0.9l1.2,0.6V34z M66.6,19.5L71.6,34h6l-7.4-22h-8.8v0.9l1.2,0.6L55.8,34
			h5.9L66.6,19.5z"/>
	</g>
</g>
</svg>
