<?xml version="1.0" encoding="utf-8"?>
<!-- Generator: Adobe Illustrator 18.1.1, SVG Export Plug-In . SVG Version: 6.00 Build 0)  -->
<svg version="1.1" id="Shape_22_1_" xmlns="http://www.w3.org/2000/svg" xmlns:xlink="http://www.w3.org/1999/xlink" x="0px"
	 y="0px" width="182" height="51" viewBox="0 0 182 51" enable-background="new 0 0 182 51" xml:space="preserve">
	 <style>
	 	#Shape_22 {
	 		fill: #FFFFFF;
	 	}
	 </style>
<g id="Shape_22">
	<g>
		<path d="M56.7,0H4.5C2.1,0,0,1.8,0,4.3v32.5C0,39.3,2.1,41,4.5,41h20c-0.7,3.7-2.9,6.4-4.9,8h-2.7
			c-0.6,0-1.1,0.5-1.1,1.1c0,0.6,0.5,0.9,1.1,0.9h26.7c0.6,0,1.1-0.2,1.1-0.9c0-0.6-0.5-1.1-1.1-1.1h-2.7c-2-1.6-4.2-4.4-4.9-8h20.6
			c2.5,0,4.3-1.7,4.3-4.2V4.3C61,1.8,59.2,0,56.7,0z M37.6,49H22.9c1.8-1.9,3.4-4.7,3.8-8h7C34.3,44.4,35.8,47.2,37.6,49z
			 M58.9,36.8c0,1.2-1,2.2-2.2,2.2H4.2C3,39,2,38,2,36.8V35h56.9V36.8z M58.9,32.9H2V4.3C2,3,3,2.1,4.2,2.1h52.5
			c1.2,0,2.2,1,2.2,2.2V32.9z M30.5,38.1c0.6,0,1.1-0.5,1.1-1.1c0-0.6-0.5-1.1-1.1-1.1c-0.6,0-1.1,0.5-1.1,1.1
			C29.4,37.6,29.9,38.1,30.5,38.1z M91,42H122v-35H91V42z M93,9h26.9v31H93V9z M121.6,0H91.2C88.8,0,87,2,87,4.4v42.4
			c0,2.5,1.8,4.2,4.3,4.2h30.4c2.5,0,4.4-1.7,4.4-4.2V4.4C126,2,124,0,121.6,0z M123.9,46.8c0,1.2-1,2.2-2.2,2.2H91.2
			C90,49,89,48,89,46.8V4.2C89,3,90,2,91.2,2h30.5c1.2,0,2.2,1,2.2,2.2V46.8z M107.6,3.4h-2.2v2.2h2.2V3.4z M106.5,43.3
			c-1.2,0-2.2,1-2.2,2.2c0,1.2,1,2.2,2.2,2.2s2.2-1,2.2-2.2C108.7,44.3,107.7,43.3,106.5,43.3z M176.6,0h-19.2C155,0,153,2,153,4.5
			v42.1c0,2.5,2,4.4,4.4,4.4h19.2c2.5,0,4.4-2,4.4-4.4V4.5C181,2,179,0,176.6,0z M179,46.8c0,1.2-1,2.2-2.2,2.2h-19.6
			c-1.2,0-2.2-1-2.2-2.2V42h24V46.8z M155,40V11H179v29H155z M179,9h-24V4.2c0-1.2,1-2.2,2.2-2.2h19.6c1.2,0,2.2,1,2.2,2.2V9z
			 M170.4,4.4h-6.7c-0.6,0-1.1,0.5-1.1,1.1c0,0.6,0.5,1.1,1.1,1.1h6.7c0.6,0,1.1-0.5,1.1-1.1C171.5,4.9,171,4.4,170.4,4.4z"/>
	</g>
</g>
</svg>
