<?xml version="1.0" encoding="utf-8"?>
<!-- Generator: Adobe Illustrator 18.1.1, SVG Export Plug-In . SVG Version: 6.00 Build 0)  -->
<svg version="1.1" id="Shape_22_1_" opacity="0.4" xmlns="http://www.w3.org/2000/svg" xmlns:xlink="http://www.w3.org/1999/xlink"
	 x="0px" y="0px" width="32px" height="34px" viewBox="0 0 32 34" enable-background="new 0 0 32 34" xml:space="preserve">
<g id="Shape_22">
	<g>
		<path d="M19.3,8H3.4l6.2-6.3c0.4-0.4,0.4-1,0-1.4c-0.4-0.4-1-0.4-1.4,0l-7.9,8C0.1,8.5,0,8.8,0,9c0,0.3,0.1,0.5,0.3,0.7l7.9,8
			c0.2,0.2,0.4,0.3,0.7,0.3c0.3,0,0.5-0.1,0.7-0.3c0.4-0.4,0.4-1,0-1.4L3.3,10h16C25.2,10,30,15,30,21c0,6-4.8,11-10.7,11H10
			c-0.5,0-1,0.4-1,1c0,0.6,0.4,1,1,1h9.4c7,0,12.7-5.8,12.7-13C32,13.9,26.3,8,19.3,8z"/>
	</g>
</g>
</svg>
