<?xml version="1.0" encoding="utf-8"?>
<!-- Generator: Adobe Illustrator 18.1.1, SVG Export Plug-In . SVG Version: 6.00 Build 0)  -->
<svg version="1.1" xmlns="http://www.w3.org/2000/svg" xmlns:xlink="http://www.w3.org/1999/xlink" x="0px" y="0px"
	 viewBox="0 0 175 127" width="175px" height="127px" enable-background="new 0 0 175 127" xml:space="preserve">
<g id="Shape_1_1_" enable-background="new    ">
	<g id="Shape_1">
		<g>
			<path fill="#41231D" d="M169.2,87H160v-3.2c0-3.2-2.6-5.8-5.8-5.8h-15.4c-3.2,0-5.8,2.6-5.8,5.8V87h-9.2c-3.1,0-5.8,2.5-5.8,5.3
				v27.1c0,3.2,2.6,5.8,5.8,5.8h0.4c0.7,1.1,1.9,1.9,3.3,1.9c1.4,0,2.6-0.9,3.3-2h31.3c0.7,1.1,1.9,2,3.3,2c1.4,0,2.6-0.8,3.3-1.9
				h0.4c3.2,0,5.8-2.6,5.8-5.8V92.3C175,89.5,172.3,87,169.2,87z M171,119.2c0,1-0.8,1.8-1.8,1.8h-1.9c-0.9,0-1.6,0.5-1.9,1.3
				c-0.3-0.8-1-1.3-1.9-1.3h-34.2c-0.9,0-1.6,0.5-1.9,1.3c-0.3-0.8-1-1.3-1.9-1.3h-1.9c-1,0-1.8-0.8-1.8-1.8V106h19v2.1
				c0,2.1,1.7,3.9,3.9,3.9h4.1c2.1,0,4-1.7,4-3.9V106h18V119.2z M145,108v-6h4v6H145z M171,102h-18.1v-0.1c0-2.1-1.7-3.9-3.9-3.9
				h-4.1c-2.1,0-3.9,1.7-3.9,3.9v0.1h-19v-9.7c0-0.4,0.7-1.3,1.8-1.3H135c1.1,0,2-0.9,2-2v-5.2c0-1,0.8-1.8,1.8-1.8h15.4
				c1,0,1.8,0.8,1.8,1.8V89c0,1.1,0.9,2,2,2h11.3c1.1,0,1.8,0.9,1.8,1.3V102z M94,98h14v-2H94V98z M94,101h12v-2H94V101z M94,104h8
				v-2h-8V104z M90,109h22V78H90V109z M92,80h18v27H92V80z M9,109h6v-9H9V109z M11,102h2v5h-2V102z M30,103h-6v6h6V103z M28,107h-2
				v-2h2V107z M45,95h-6v14h6V95z M43,107h-2V97h2V107z M110,115H6c-1.1,0-2-0.9-2-2V16h141v54c0,1.1,0.9,2,2,2s2-0.9,2-2V6
				c0-3.3-2.7-6-6-6H6C2.7,0,0,2.7,0,6v107c0,3.3,2.7,6,6,6h104c1.1,0,2-0.9,2-2C112,115.9,111.1,115,110,115z M22,6
				c1.1,0,2,0.9,2,2c0,1.1-0.9,2-2,2c-1.1,0-2-0.9-2-2C20,6.9,20.9,6,22,6z M15,6c1.1,0,2,0.9,2,2c0,1.1-0.9,2-2,2c-1.1,0-2-0.9-2-2
				C13,6.9,13.9,6,15,6z M8,6c1.1,0,2,0.9,2,2c0,1.1-0.9,2-2,2c-1.1,0-2-0.9-2-2C6,6.9,6.9,6,8,6z M65,23v2h12v-2H65z M10,23v2h15
				v-2H10z M82,23v2h15v-2H82z M102,23v2h14v-2H102z M136,23h-15v2h15V23z M136,30H10v42h126V30z M134,70H12V32h122V70z M84,79H67v2
				h17V79z M67,83v2h12v-2H67z M64,79h-6v6h6V79z M62,83h-2v-2h2V83z M84,90H67v2h17V90z M67,94v2h12v-2H67z M64,90h-6v6h6V90z
				 M62,94h-2v-2h2V94z M84,101H67v2h17V101z M67,107h12v-2H67V107z M58,107h6v-6h-6V107z M60,103h2v2h-2V103z M85,49H61v2h24V49z
				 M105,52H87v2h18V52z M59,52H41v2h18V52z M74,62V52h-2v10H74z M70,62V52h-2v10H70z M66,62V52h-2v10H66z M78,62V52h-2v10H78z
				 M82,62V52h-2v10H82z M73,43c2.8,0,5,2.2,5,5h2c0-3.5-2.6-6.4-6-6.9V39h2v-2h-4v1v1v2.1c-3.4,0.5-6,3.4-6,6.9h2
				C68,45.2,70.2,43,73,43z M25,58.9V63v2h16h2h2h2h2h2h2h2h2h2h2h24h2h2h2h2h2h2h2h2h2h2h16v-2v-4.1c1.7-0.4,3-2,3-3.9
				c0-2.2-1.8-4-4-4c-2.2,0-4,1.8-4,4c0,1.9,1.3,3.4,3,3.9V63h-7v-2h2l-2-2.7V58h-0.3l-0.8-1l-0.8,1H110v0.3l-2,2.7h2v2h-5v-2v-2v-2
				v-2h-2h-2h-2h-2h-2h-2h-2h-2h-2v2v2v2v2h-2H61h-2v-2v-2v-2v-2h-2h-2h-2h-2h-2h-2h-2h-2h-2v2v2v2v2h-5v-2h2l-2-2.7V58h-0.3L35,57
				l-0.8,1H34v0.3L32,61h2v2h-7v-4.1c1.7-0.4,3-2,3-3.9c0-2.2-1.8-4-4-4c-2.2,0-4,1.8-4,4C22,56.9,23.3,58.4,25,58.9z M118,55
				c0-1.1,0.9-2,2-2s2,0.9,2,2c0,1.1-0.9,2-2,2S118,56.1,118,55z M101,57h2v2h-2V57z M101,61h2v2h-2V61z M97,57h2v2h-2V57z M97,61h2
				v2h-2V61z M93,57h2v2h-2V57z M93,61h2v2h-2V61z M89,57h2v2h-2V57z M89,61h2v2h-2V61z M55,57h2v2h-2V57z M55,61h2v2h-2V61z M51,57
				h2v2h-2V57z M51,61h2v2h-2V61z M47,57h2v2h-2V57z M47,61h2v2h-2V61z M43,57h2v2h-2V57z M43,61h2v2h-2V61z M26,53c1.1,0,2,0.9,2,2
				c0,1.1-0.9,2-2,2c-1.1,0-2-0.9-2-2C24,53.9,24.9,53,26,53z M151,85h-9c-1.8,0-2,3.4-2,6h13C153,88.4,152.8,85,151,85z M26.1,82.9
				l1.4-1.4l-6.3-4.3c-0.3-0.2-0.8-0.2-1.1,0l-9.7,6c-0.5,0.3-0.6,0.9-0.3,1.4c0.3,0.5,0.9,0.6,1.4,0.3l9.2-5.7L26.1,82.9z
				 M40.5,84.6l-3.7,3.1l-3.9-2.7l-1.4,1.4l4.9,3.3c0.2,0.1,0.4,0.2,0.6,0.2c0.2,0,0.5-0.1,0.6-0.2l5-4.3L40.5,84.6z M50.4,76.2
				l-4.6,3.9l2.1,0.9l3.9-3.3c0.4-0.4,0.5-1,0.1-1.4C51.4,75.9,50.8,75.9,50.4,76.2z"/>
		</g>
	</g>
</g>
<g id="Shape_2_1_" enable-background="new    ">
	<g id="Shape_2">
		<g>
			<path fill="#FBAA19" d="M160,97v3h9v-3H160z M21,95h-4c-0.6,0-1,0.4-1,1v12c0,0.6,0.4,1,1,1h4c0.6,0,1-0.4,1-1V96
				C22,95.4,21.6,95,21,95z M20,107h-2V97h2V107z M36,98h-4c-0.6,0-1,0.4-1,1v9c0,0.6,0.4,1,1,1h4c0.6,0,1-0.4,1-1v-9
				C37,98.4,36.6,98,36,98z M35,107h-2v-7h2V107z M51,102h-4c-0.6,0-1,0.4-1,1v5c0,0.6,0.4,1,1,1h4c0.6,0,1-0.4,1-1v-5
				C52,102.4,51.6,102,51,102z M50,107h-2v-3h2V107z M94,93h14V83H94V93z M15,39h39v-4H15V39z M41,41H15v4h26V41z M51.9,85.3
				c0.2-0.5-0.1-1.1-0.6-1.3l-14.1-5C37,79,36.7,79,36.5,79.1L20.5,88l-9.4-1c-0.6-0.1-1,0.3-1.1,0.9c-0.1,0.6,0.3,1,0.9,1.1l9.7,1
				c0,0,0.1,0,0.1,0c0.2,0,0.3,0,0.5-0.1L37,81.1l13.6,4.8C51.2,86.1,51.8,85.9,51.9,85.3z"/>
		</g>
	</g>
</g>
</svg>
