<?xml version="1.0" encoding="utf-8"?>
<!-- Generator: Adobe Illustrator 18.1.1, SVG Export Plug-In . SVG Version: 6.00 Build 0)  -->
<svg version="1.1" xmlns="http://www.w3.org/2000/svg" xmlns:xlink="http://www.w3.org/1999/xlink" x="0px" y="0px"
	 viewBox="0 0 168 127" width="168px" height="127px" enable-background="new 0 0 168 127" xml:space="preserve">
<g id="Shape_3_1_" enable-background="new    ">
	<g id="Shape_3">
		<g>
			<path fill="#41231D" d="M78,67H54v2h24V67z M72,29H60v2h12V29z M56,29h-5v2h5V29z M88,29H76v2h12V29z M110,29H92v2h18V29z
				 M129,29h-15v2h15V29z M68,71H54v2h14V71z M11,24v12h17V24H11z M26,34H13v-8h13V34z M136,24H33v12h103V24z M134,34H35v-8h99V34z
				 M11,108h35V44H11V108z M13,46h31v60.1H13V46z M78,44H54v20h24V44z M76,62H56V46h20V62z M78,102H54v2h24V102z M54,108h14v-2H54
				V108z M107,67H83v2h24V67z M83,71v2h14v-2H83z M107,102H83v2h24V102z M83,108h14v-2H83V108z M107,79H83v20h24V79z M105,97H85V81
				h20V97z M136,67h-24v2h24V67z M112,73h14v-2h-14V73z M136,44h-24v20h24V44z M134,62h-20V46h20V62z M29,65H17v2h12V65z M19,76h-2
				v2h2V76z M31,55h9v-2h-9V55z M23,53h-6v2h6V53z M27,78h13v-2H27V78z M37,67h3v-2h-3V67z M17,88h12v-2H17V88z M37,88h3v-2h-3V88z
				 M117,115H6c-1.1,0-2-0.9-2-2V16h141v57c0,1.1,0.9,2,2,2s2-0.9,2-2V6c0-3.3-2.7-6-6-6H6C2.7,0,0,2.7,0,6v107c0,3.3,2.7,6,6,6h111
				c1.1,0,2-0.9,2-2C119,115.9,118.1,115,117,115z M22,6c1.1,0,2,0.9,2,2c0,1.1-0.9,2-2,2c-1.1,0-2-0.9-2-2C20,6.9,20.9,6,22,6z
				 M15,6c1.1,0,2,0.9,2,2c0,1.1-0.9,2-2,2c-1.1,0-2-0.9-2-2C13,6.9,13.9,6,15,6z M8,6c1.1,0,2,0.9,2,2c0,1.1-0.9,2-2,2
				c-1.1,0-2-0.9-2-2C6,6.9,6.9,6,8,6z M78,93l-2-2v6H56V81h10l-2-2H54v20h24V93z M132,113h28c0.6,0,1.1-0.3,1.5-0.7
				c0.4-0.3,0.7-0.7,0.8-1.2l5.6-22.4c0.3-1.1-0.4-2.2-1.5-2.4c-0.1,0-0.3-0.1-0.4-0.1c-0.3-0.2-0.7-0.3-1.1-0.3h-38.4l-1.7-5.6
				c0,0,0-0.1,0-0.1c0-0.1-0.1-0.1-0.1-0.2c0-0.1-0.1-0.1-0.1-0.2c0-0.1-0.1-0.1-0.1-0.2c0-0.1-0.1-0.1-0.1-0.2c0,0-0.1-0.1-0.1-0.1
				c0,0-0.1-0.1-0.1-0.1c-0.1,0-0.1-0.1-0.2-0.1c-0.1,0-0.1-0.1-0.2-0.1c-0.1,0-0.1-0.1-0.2-0.1c-0.1,0-0.1,0-0.2-0.1
				c-0.1,0-0.1,0-0.2,0c-0.1,0-0.1,0-0.2,0c0,0-0.1,0-0.1,0h-7c-1.1,0-2,0.9-2,2s0.9,2,2,2h5.5l8,26.5c-2.6,1-4.5,3.6-4.5,6.5
				c0,3.9,3.1,7,7,7h0.3c0.8,2.3,3,4,5.7,4c2.6,0,4.8-1.7,5.7-4h6.7c0.8,2.3,3,4,5.7,4c2.6,0,4.8-1.7,5.7-4h1.3c1.1,0,2-0.9,2-2
				c0-1.1-0.9-2-2-2h-1.3c-0.8-2.3-3-4-5.7-4c-2.6,0-4.8,1.7-5.7,4h-6.7c-0.8-2.3-3-4-5.7-4c-2.6,0-4.8,1.7-5.7,4H132
				c-1.7,0-3-1.3-3-3C129,114.3,130.3,113,132,113z M156,119c1.1,0,2,0.9,2,2c0,1.1-0.9,2-2,2s-2-0.9-2-2
				C154,119.9,154.9,119,156,119z M138,119c1.1,0,2,0.9,2,2c0,1.1-0.9,2-2,2c-1.1,0-2-0.9-2-2C136,119.9,136.9,119,138,119z
				 M138,109h-4.4l-0.9-3h5.3V109z M138,102h-6.5l-1.2-4h7.8V102z M154,90h9.5l-1,4H154V90z M154,98h7.5l-1,4H154V98z M154,106h5.5
				l-0.8,3H154V106z M142,90h8v4h-8V90z M142,98h8v4h-8V98z M142,106h8v3h-8V106z M129,94l-1.2-4H138v4H129z M107,58l-2-2v6H85V46
				h10l-2-2H83v20h24V58z"/>
		</g>
	</g>
</g>
<g id="Shape_4_1_" enable-background="new    ">
	<g id="Shape_4">
		<g>
			<path fill="#FBAA19" d="M17,101h23v-6H17V101z M33,69c1.7,0,3-1.3,3-3c0-1.7-1.3-3-3-3c-1.7,0-3,1.3-3,3C30,67.7,31.3,69,33,69z
				 M33,84c-1.7,0-3,1.3-3,3c0,1.7,1.3,3,3,3c1.7,0,3-1.3,3-3C36,85.3,34.7,84,33,84z M27,57c1.7,0,3-1.3,3-3c0-1.7-1.3-3-3-3
				c-1.7,0-3,1.3-3,3C24,55.7,25.3,57,27,57z M23,80c1.7,0,3-1.3,3-3c0-1.7-1.3-3-3-3c-1.7,0-3,1.3-3,3C20,78.7,21.3,80,23,80z
				 M155.4,78.7l-6.6,5.3H162L155.4,78.7z M131,84h16.5l-6.7-8L131,84z M107,55V44H96L107,55z M78,90V79H67L78,90z"/>
		</g>
	</g>
</g>
</svg>
